<?xml version="1.0" standalone="no"?>
<!DOCTYPE svg PUBLIC "-//W3C//DTD SVG 20010904//EN"
 "http://www.w3.org/TR/2001/REC-SVG-20010904/DTD/svg10.dtd">
<svg version="1.0" xmlns="http://www.w3.org/2000/svg"
 width="700.000000pt" height="700.000000pt" viewBox="0 0 700.000000 700.000000"
 preserveAspectRatio="xMidYMid meet">
<metadata>
Created by potrace 1.14, written by Peter Selinger 2001-2017
</metadata>
<g transform="translate(0.000000,700.000000) scale(0.100000,-0.100000)"
fill="#000000" stroke="none">
<path d="M3630 6809 c-85 -34 -124 -150 -76 -224 17 -26 1084 -1090 1115
-1111 32 -23 111 -22 153 2 37 22 78 93 78 137 0 15 -9 44 -19 65 -24 46
-1084 1104 -1128 1126 -36 18 -85 20 -123 5z"/>
<path d="M3307 6156 c-103 -105 -387 -390 -630 -634 l-442 -442 463 -463 462
-462 262 263 c143 144 263 262 265 262 2 0 543 -538 1200 -1196 l1196 -1196
111 111 110 110 -1174 1175 c-646 646 -1185 1185 -1198 1199 l-23 24 261 260
c143 144 260 263 260 266 0 11 -914 917 -924 916 -6 -1 -95 -88 -199 -193z"/>
<path d="M1865 5046 c-42 -18 -83 -69 -91 -112 -15 -80 -20 -74 570 -665 608
-607 590 -592 680 -568 48 13 101 65 109 107 10 47 -2 102 -28 135 -47 62
-1082 1085 -1113 1101 -37 19 -86 20 -127 2z"/>
<path d="M1045 2376 c-38 -17 -84 -62 -91 -90 -9 -38 -10 -197 -1 -203 11 -7
1785 -8 1792 -1 3 3 6 49 6 103 0 93 -1 100 -29 134 -60 75 -6 71 -872 71
-620 -1 -781 -3 -805 -14z"/>
<path d="M811 1886 c-18 -5 -48 -25 -67 -44 -43 -43 -52 -91 -45 -239 l1 -23
1150 0 1150 0 1 43 c2 89 -3 143 -17 175 -16 40 -30 54 -74 77 -31 16 -106 17
-1050 19 -589 0 -1031 -3 -1049 -8z"/>
</g>
</svg>
